DBRep_DrawableShape

CASCADE Topology V3, (c) Open Cascade
Locations 1
1
              1               0               0               0 
              0 0.866025403784439            -0.5               0 
              0             0.5 0.866025403784439               0 
Curve2ds 53
1 0 0 1 0 
1 0 0 1 0 
1 0.10000000000000001 0 0 -1 
1 0 0 0 1 
1 0 -4 1 0 
1 0 0 1 0 
1 0 0 0 -1 
1 0 0 0 1 
1 0 0 1 0 
1 0 2 1 0 
1 0.10000000000000001 0 0 -1 
1 2 0 0 1 
1 0 -4 1 0 
1 0 2 1 0 
1 0 0 0 -1 
1 2 0 0 1 
1 0 0 0 1 
1 0 0 1 0 
1 0.10000000000000001 0 0 1 
1 0 0 1 0 
1 0 0 0 1 
1 0 4 1 0 
1 0.10000000000000001 0 0 1 
1 0 4 1 0 
1 0.10000000000000001 0 0 -1 
1 0 0 0 1 
1 0.90000000000000002 1.8999999999999999 0 1 
1 0.10000000000000001 0 0 1 
1 0 0 1 0 
1 0.90000000000000002 1.8999999999999999 1 0 
1 0.10000000000000001 0 0 -1 
1 0.20000000000000001 0 0 1 
1 1.1000000000000001 1.8999999999999999 0 1 
1 0.10000000000000001 0 0 1 
1 0 0.20000000000000001 1 0 
1 0.90000000000000002 2.1000000000000001 1 0 
1 0 0 1 0 
1 0 0 1 0 
1 0 -0.20000000000000001 1 0 
1 0 0 1 0 
1 0 0 0 -1 
1 0 0 0 1 
1 0 0 1 0 
1 0 0.20000000000000001 1 0 
1 0 -0.20000000000000001 1 0 
1 0 0.20000000000000001 1 0 
1 0 0 0 -1 
1 0.20000000000000001 0 0 1 
1 0 0 0 1 
1 0 0 1 0 
1 0 0 0 1 
1 0 0.20000000000000001 1 0 
1 0 0.10000000000000001 1 0 
Curves 25
1 -1 -2 0.10000000000000001 0 0 1 
1 -1 -2 0.20000000000000001 -0 1 0 
1 -1 2 0.10000000000000001 0 0 1 
1 -1 -2 0.10000000000000001 -0 1 0 
1 1 -2 0.10000000000000001 0 0 1 
1 1 -2 0.20000000000000001 -0 1 0 
1 1 2 0.10000000000000001 0 0 1 
1 1 -2 0.10000000000000001 -0 1 0 
1 -1 -2 0.10000000000000001 1 0 -0 
1 -1 -2 0.20000000000000001 1 0 -0 
1 -1 2 0.10000000000000001 1 0 -0 
1 -1 2 0.20000000000000001 1 0 -0 
1 -0.10000000000000001 -0.10000000000000001 0.10000000000000001 -0 1 0 
1 -0.10000000000000001 -0.10000000000000001 0.10000000000000001 1 0 -0 
1 0.10000000000000001 -0.10000000000000001 0.10000000000000001 -0 1 0 
1 -0.10000000000000001 0.10000000000000001 0.10000000000000001 1 0 -0 
1 -0.10000000000000001 -0.10000000000000001 0 0 0 1 
1 -0.10000000000000001 0.10000000000000001 0 0 0 1 
1 -0.10000000000000001 -0.10000000000000001 0 -0 1 0 
1 0.10000000000000001 -0.10000000000000001 0 0 0 1 
1 0.10000000000000001 0.10000000000000001 0 0 0 1 
1 0.10000000000000001 -0.10000000000000001 0 -0 1 0 
1 -0.10000000000000001 -0.10000000000000001 0 1 0 -0 
1 -0.10000000000000001 0.10000000000000001 0 1 0 -0 
1 -0.10000000000000001 0 0 1 0 0 
Polygon3D 0
PolygonOnTriangulations 0
Surfaces 12
1 -1 -2 0.10000000000000001 1 0 -0 0 0 1 0 -1 0 
1 -1 -2 0.10000000000000001 -0 1 0 0 0 1 1 0 -0 
1 -1 -2 0.20000000000000001 0 0 1 1 0 -0 -0 1 0 
1 -1 2 0.10000000000000001 -0 1 0 0 0 1 1 0 -0 
1 -1 -2 0.10000000000000001 0 0 1 1 0 -0 -0 1 0 
1 1 -2 0.10000000000000001 1 0 -0 0 0 1 0 -1 0 
1 -0.10000000000000001 -0.10000000000000001 0 1 0 -0 0 0 1 0 -1 0 
1 -0.10000000000000001 -0.10000000000000001 0.10000000000000001 0 0 1 1 0 -0 -0 1 0 
1 -0.10000000000000001 -0.10000000000000001 0 -0 1 0 0 0 1 1 0 -0 
1 0.10000000000000001 -0.10000000000000001 0 1 0 -0 0 0 1 0 -1 0 
1 -0.10000000000000001 0.10000000000000001 0 -0 1 0 0 0 1 1 0 -0 
1 -0.10000000000000001 -0.10000000000000001 0 0 0 1 1 0 -0 -0 1 0 
Triangulations 0

TShapes 77
Ve
1e-07
-1 -2 0.2
0 0

0101101
*
Ve
1e-07
-1 -2 0.1
0 0

0101101
*
Ed
 1e-07 1 1 0
1  1 0 0 0.1
2  1 1 0 0 0.1
2  2 2 0 0 0.1
0

0101000
-77 0 +76 0 *
Ve
1e-07
-1 2 0.2
0 0

0101101
*
Ed
 1e-07 1 1 0
1  2 0 0 4
2  3 1 0 0 4
2  4 3 0 0 4
0

0101000
-74 0 +77 0 *
Ve
1e-07
-1 2 0.1
0 0

0101101
*
Ed
 1e-07 1 1 0
1  3 0 0 0.1
2  5 1 0 0 0.1
2  6 4 0 0 0.1
0

0101000
-74 0 +72 0 *
Ed
 1e-07 1 1 0
1  4 0 0 4
2  7 1 0 0 4
2  8 5 0 0 4
0

0101000
-72 0 +76 0 *
Wi

0101100
-75 0 -73 0 +71 0 +70 0 *
Fa
0  1e-07 1 0

0111000
+69 0 *
Ve
1e-07
1 -2 0.2
0 0

0101101
*
Ve
1e-07
1 -2 0.1
0 0

0101101
*
Ed
 1e-07 1 1 0
1  5 0 0 0.1
2  9 6 0 0 0.1
2  10 2 0 0 0.1
0

0101000
-67 0 +66 0 *
Ve
1e-07
1 2 0.2
0 0

0101101
*
Ed
 1e-07 1 1 0
1  6 0 0 4
2  11 6 0 0 4
2  12 3 0 0 4
0

0101000
-64 0 +67 0 *
Ve
1e-07
1 2 0.1
0 0

0101101
*
Ed
 1e-07 1 1 0
1  7 0 0 0.1
2  13 6 0 0 0.1
2  14 4 0 0 0.1
0

0101000
-64 0 +62 0 *
Ed
 1e-07 1 1 0
1  8 0 0 4
2  15 6 0 0 4
2  16 5 0 0 4
0

0101000
-62 0 +66 0 *
Wi

0101100
-65 0 -63 0 +61 0 +60 0 *
Fa
0  1e-07 6 0

0111000
+59 0 *
Ed
 1e-07 1 1 0
1  9 0 0 2
2  17 2 0 0 2
2  18 5 0 0 2
0

0101000
-66 0 +76 0 *
Ed
 1e-07 1 1 0
1  10 0 0 2
2  19 2 0 0 2
2  20 3 0 0 2
0

0101000
-67 0 +77 0 *
Wi

0101100
-57 0 -65 0 +56 0 +75 0 *
Fa
0  1e-07 2 0

0111000
+55 0 *
Ed
 1e-07 1 1 0
1  11 0 0 2
2  21 4 0 0 2
2  22 5 0 0 2
0

0101000
-62 0 +72 0 *
Ed
 1e-07 1 1 0
1  12 0 0 2
2  23 4 0 0 2
2  24 3 0 0 2
0

0101000
-64 0 +74 0 *
Wi

0101100
-53 0 -61 0 +52 0 +71 0 *
Fa
0  1e-07 4 0

0111000
+51 0 *
Wi

0101100
-70 0 -53 0 +57 0 +60 0 *
Ve
1e-07
-0.1 0.1 0.1
0 0

0101101
*
Ve
1e-07
-0.1 -0.1 0.1
0 0

0101101
*
Ed
 1e-07 1 1 0
1  13 0 0 0.2
2  25 7 0 0 0.2
2  26 8 0 0 0.2
2  27 5 0 0 0.2
0

0101000
-48 0 +47 0 *
Ve
1e-07
0.1 -0.1 0.1
0 0

0101101
*
Ed
 1e-07 1 1 0
1  14 0 0 0.2
2  28 9 0 0 0.2
2  29 8 0 0 0.2
2  30 5 0 0 0.2
0

0101000
-45 0 +47 0 *
Ve
1e-07
0.1 0.1 0.1
0 0

0101101
*
Ed
 1e-07 1 1 0
1  15 0 0 0.2
2  31 10 0 0 0.2
2  32 8 0 0 0.2
2  33 5 0 0 0.2
0

0101000
-43 0 +45 0 *
Ed
 1e-07 1 1 0
1  16 0 0 0.2
2  34 11 0 0 0.2
2  35 8 0 0 0.2
2  36 5 0 0 0.2
0

0101000
-43 0 +48 0 *
Wi

0101100
+46 0 -44 0 -42 0 +41 0 *
Fa
0  1e-07 5 0

0101000
+49 0 +40 0 *
Wi

0101100
-46 0 -41 0 +42 0 +44 0 *
Fa
0  1e-07 8 0

0111000
+38 0 *
Wi

0101100
-73 0 -52 0 +63 0 +56 0 *
Fa
0  1e-07 3 0

0111000
+36 0 *
Sh

0101100
-68 0 +58 0 -54 0 +50 0 -39 0 -37 0 +35 0 *
So

0100000
+34 0 *
Ve
1e-07
-0.1 -0.1 0
0 0

0101101
*
Ed
 1e-07 1 1 0
1  17 0 0 0.1
2  37 7 0 0 0.1
2  38 9 0 0 0.1
0

0101000
+32 0 -47 0 *
Ve
1.00000000033504e-07
-0.1 0.1 0
0 0

0101101
*
Ed
 1e-07 1 1 0
1  18 0 0 0.1
2  39 7 0 0 0.1
2  40 11 0 0 0.1
0

0101000
+30 0 -48 0 *
Ve
1.00000000013878e-07
-0.1 0 0
0 0

0101101
*
Ed
 1e-07 1 1 0
1  19 0 0 0.1
2  41 7 0 0 0.1
2  42 12 0 0 0.1
0

0101000
+32 0 -28 0 *
Ed
 1e-07 1 1 0
1  19 0 0.1 0.2
2  41 7 0 0.1 0.2
2  42 12 0 0.1 0.2
0

0101000
+28 0 -30 0 *
Wi

0101100
-31 0 -46 0 +29 0 +27 0 +26 0 *
Fa
0  1e-07 7 0

0101000
+25 0 *
Ve
1e-07
0.1 -0.1 0
0 0

0101101
*
Ed
 1e-07 1 1 0
1  20 0 0 0.1
2  43 10 0 0 0.1
2  44 9 0 0 0.1
0

0101000
+23 0 -45 0 *
Ve
1.00000000033504e-07
0.1 0.1 0
0 0

0101101
*
Ed
 1e-07 1 1 0
1  21 0 0 0.1
2  45 10 0 0 0.1
2  46 11 0 0 0.1
0

0101000
+21 0 -43 0 *
Ve
1.00000000013878e-07
0.1 0 0
0 0

0101101
*
Ed
 1e-07 1 1 0
1  22 0 0 0.1
2  47 10 0 0 0.1
2  48 12 0 0 0.1
0

0101000
+23 0 -19 0 *
Ed
 1e-07 1 1 0
1  22 0 0.1 0.2
2  47 10 0 0.1 0.2
2  48 12 0 0.1 0.2
0

0101000
+19 0 -21 0 *
Wi

0101100
-22 0 -42 0 +20 0 +18 0 +17 0 *
Fa
0  1e-07 10 0

0101000
+16 0 *
Ed
 1e-07 1 1 0
1  23 0 0 0.2
2  49 9 0 0 0.2
2  50 12 0 0 0.2
0

0101000
+32 0 -23 0 *
Wi

0101100
-14 0 -22 0 +44 0 +31 0 *
Fa
0  1e-07 9 0

0101000
+13 0 *
Ed
 1.00000000013878e-07 1 1 0
1  24 0 0 0.2
2  51 11 0 0 0.2
2  52 12 0 0 0.2
0

0101000
+30 0 -21 0 *
Wi

0101100
-11 0 -20 0 +41 0 +29 0 *
Fa
0  1e-07 11 0

0101000
+10 0 *
Ed
 1.00000000013878e-07 1 1 0
1  25 0 0 0.2
2  53 12 0 0 0.2
0

0101000
+28 0 -19 0 *
Wi

0101100
-27 0 -8 0 +18 0 +14 0 *
Fa
0  1e-07 12 0

0101000
+7 0 *
Wi

0101100
-26 0 -11 0 +17 0 +8 0 *
Fa
0  1e-07 12 0

0101000
+5 0 *
Sh

0101100
-24 0 +15 0 -12 0 +9 0 -6 0 -4 0 +37 0 *
So

0100000
+3 0 *
Co

1100000
+33 1 +2 1 *

+1 0 